# xmcd
#
# Track frame offsets:
#	150
#	14161
#	25525
#	35958
#	47533
#	58522
#	70138
#	81497
#	92319
#	104012
#	117745
#	130472
#	145741
#	157436
#	168532
#	178386
#	191919
#	201901
#
# Disc length: 2820
#
# Revision: 2
# Processed by: cddbd v1.5.1PL0 Copyright (c) Steve Scherf et al.
# Submitted via: audiograbber 1.81.03
# Normalized: r1:TDELIM( - )
#
DISCID=1a0b0212
DTITLE=Various Artist - Cowboys and Cowgirls [CD3)
DYEAR=2001
DGENRE=Country
TTITLE0=John Denver - Annie's Song
TTITLE1=Stella Parton - Standard Lie No 1
TTITLE2=Johnny Russel - Act Naturally
TTITLE3=Dolly Parton - Letter To Heaven
TTITLE4=Waylon Jennings - Sally Was A Good Old Girl
TTITLE5=Patsy Cline - A Poor Man's Roses
TTITLE6=Ferlin Husky - Say When
TTITLE7=Billie Joe Spears - All I have To Do Is Dream
TTITLE8=Stonewall Jackson - Waterloo
TTITLE9=Barbara Fairchild - Crazy Love
TTITLE10=Willie Nelson - To All The Girls I've Loved Before
TTITLE11=Melba Montgomery - No Charge
TTITLE12=Merle Haggard - Okie From Muskogee
TTITLE13=Tammy Wynette - D.I.V.O.R.C.E.
TTITLE14=Don Williams - Take My Hand For A While
TTITLE15=Patti Page - Tenessee Waltz
TTITLE16=Carl Perkins - Daddy Sang Bass
TTITLE17=Jeannie C.Riley - Girl Most Likely
EXTD=
EXTT0=
EXTT1=
EXTT2=
EXTT3=
EXTT4=
EXTT5=
EXTT6=
EXTT7=
EXTT8=
EXTT9=
EXTT10=
EXTT11=
EXTT12=
EXTT13=
EXTT14=
EXTT15=
EXTT16=
EXTT17=
PLAYORDER=
